<svg xmlns="http://www.w3.org/2000/svg" xml:space="preserve" width="16" height="16" fill-rule="evenodd" stroke-linejoin="round" stroke-miterlimit="2" clip-rule="evenodd"><path fill="#e0e0e0" fill-rule="nonzero" d="M7,1L6.436,3.258C6.199,3.334 5.969,3.427 5.746,3.538L3.758,2.343L2.344,3.758L3.539,5.752L3.254,6.437L1,7L1,9L6.27,9C6.093,8.695 6,8.349 6,7.996C6,6.899 6.903,5.996 8,5.996C9.097,5.996 10,6.899 10,7.996C10,8.349 9.907,8.695 9.73,9L15,9L15,7L12.742,6.435C12.666,6.199 12.572,5.97 12.462,5.748L13.656,3.758L12.242,2.344L10.248,3.539C10.027,3.427 9.797,3.332 9.562,3.254L9,1L7,1Z"/><path fill="#e0e0e0" fill-rule="nonzero" d="M175.668 266.251C188.349 266.251 199.511 268.032 209.152 271.593 218.793 275.154 223.614 279.975 223.614 286.055 223.614 292.135 221.312 299.649 216.709 308.595 212.105 317.542 208.24 322.015 205.113 322.015 204.245 322.015 203.246 321.537 202.116 320.582 200.987 319.626 198.382 318.584 194.299 317.455 190.217 316.326 186.699 315.761 183.746 315.761 173.67 315.761 165.549 319.322 159.382 326.445 153.215 333.567 150.132 344.468 150.132 359.147 150.132 373.826 153.302 384.727 159.643 391.849 165.983 398.972 174.018 402.533 183.746 402.533 187.741 402.533 192.215 401.968 197.166 400.839 202.116 399.71 205.634 398.103 207.719 396.018 208.066 395.671 208.761 395.497 209.803 395.497 210.846 395.497 212.8 397.452 215.666 401.36 218.533 405.269 221.182 410.394 223.614 416.734 226.046 423.075 227.262 427.982 227.262 431.457 227.262 438.232 222.051 443.617 211.627 447.613 201.204 451.608 188.871 453.606 174.626 453.606 151.695 453.606 132.847 445.528 118.081 429.372 103.315 413.216 95.932 390.416 95.932 360.971 95.932 331.526 103.532 308.378 118.732 291.527 133.932 274.677 152.911 266.251 175.668 266.251ZM417.743 372.827C420.87 372.827 423.129 375.346 424.518 380.384 425.387 383.163 425.821 385.813 425.821 388.331 425.821 390.85 425.561 393.239 425.039 395.497 423.823 400.535 421.565 403.054 418.264 403.054L379.178 403.315 364.325 447.352C363.283 449.958 360.677 451.261 356.508 451.261 352.86 451.261 349.038 450.305 345.043 448.394 337.052 444.572 334.011 440.664 335.922 436.668L347.127 403.315 316.9 403.315 302.047 447.091C301.179 449.523 298.747 450.739 294.751 450.739 290.756 450.739 286.76 449.784 282.765 447.873 274.774 444.051 271.734 440.143 273.645 436.147L284.589 403.315 265.046 403.315C263.135 403.315 261.571 402.272 260.355 400.188 258.792 397.756 258.01 394.889 258.01 391.589 258.01 388.288 258.184 385.335 258.531 382.729 258.879 380.123 259.791 377.822 261.267 375.824 262.744 373.826 264.438 372.914 266.349 373.088L295.012 373.088 304.132 345.988 274.426 345.988C272.515 345.988 270.952 344.945 269.736 342.861 268.173 340.429 267.391 337.562 267.391 334.262 267.391 330.961 267.565 328.008 267.912 325.402 268.259 322.796 269.171 320.495 270.648 318.497 272.125 316.499 273.818 315.587 275.729 315.761L314.295 315.761 327.323 277.456C328.366 274.677 331.145 273.287 335.662 273.287 339.136 273.287 342.871 274.156 346.867 275.893 354.684 279.367 357.898 282.928 356.508 286.576L346.606 315.761 376.833 315.761 389.601 277.717C390.991 273.895 395.247 272.766 402.369 274.329 409.665 275.719 414.703 278.151 417.483 281.625 419.046 283.536 419.48 285.36 418.786 287.098L409.144 315.5 427.124 315.5C430.251 315.5 432.509 318.019 433.899 323.057 434.768 325.837 435.202 328.486 435.202 331.005 435.202 333.524 434.941 335.912 434.42 338.17 433.204 343.208 430.946 345.727 427.645 345.727L398.721 345.727 389.601 372.827 417.743 372.827ZM334.359 343.643 323.675 375.433 359.114 375.433 369.797 343.643 334.359 343.643Z" transform="translate(.69 2.785)scale(.02758)"/></svg>