<svg xmlns="http://www.w3.org/2000/svg" fill-rule="evenodd" stroke-linejoin="round" stroke-miterlimit="2" clip-rule="evenodd" viewBox="0 0 16 16"><clipPath id="a"><path d="m0 0h16v16h-16z"/></clipPath><path fill="none" d="m0 0h16v16h-16z"/><g clip-path="url(#a)"><path fill="#474747" fill-rule="nonzero" d="m10.748 3.884-4.297 6.724-2.045-3.028-1.317.919 2.719 4.031c.149.221.396.354.66.354h.01c.268-.004.516-.142.662-.37l4.949-7.744z"/><path fill="#e0e0e0" d="m8 0c4.415 0 8 3.585 8 8s-3.585 8-8 8-8-3.585-8-8 3.585-8 8-8zm-1.532 13.884h.018c.61-.01 1.168-.318 1.497-.832l5.478-8.574-3.009-1.988-4.024 6.297-1.761-2.608-2.958 2.063 3.27 4.847c.335.498.894.795 1.489.795z"/></g></svg>
