<svg xmlns="http://www.w3.org/2000/svg" fill-rule="evenodd" stroke-linejoin="round" stroke-miterlimit="2" clip-rule="evenodd" viewBox="0 0 16 16"><clipPath id="a"><path d="m0 0h16v16h-16z"/></clipPath><path fill="none" d="m0 0h16v16h-16z"/><g clip-path="url(#a)"><path fill="#fc7f7f" d="m8 0c4.415 0 8 3.585 8 8s-3.585 8-8 8-8-3.585-8-8 3.585-8 8-8zm2.357 8 2.357-2.357-2.357-2.357-2.357 2.357-2.357-2.357-2.357 2.357 2.357 2.357-2.357 2.357 2.357 2.357 2.357-2.357 2.357 2.357 2.357-2.357z"/></g><path fill="#8eef97" fill-rule="nonzero" d="m22.481 21.885 2.357-2.357-2.357-2.357-2.357 2.357-2.357-2.357-2.357 2.357 2.357 2.357-2.357 2.357 2.357 2.357 2.357-2.357 2.357 2.357 2.357-2.357z"/></svg>
