<svg xmlns="http://www.w3.org/2000/svg" width="16" height="16" viewBox="-599.5 337.5 16 16"><g fill="#fc7f7f"><path d="M-596.658 348.62v1.762c-.784.158-1.292.921-1.134 1.705s.921 1.292 1.705 1.136c.212-.045.414-.135.588-.266.638.482 1.545.354 2.028-.282.482-.64.356-1.546-.283-2.028-.173-.131-.375-.224-.588-.265v-1.763zM-594.342 342.382v-1.763c.786-.156 1.294-.92 1.136-1.703-.158-.786-.923-1.295-1.707-1.139-.212.045-.413.137-.587.268-.639-.482-1.546-.355-2.029.283-.482.637-.355 1.545.284 2.027.174.131.375.222.587.265v1.762z"/><path d="m-592.687 340.5-5.625 1.667v1.666l2.812.834-2.812.833v1.667l2.812.833-2.812.833v1.667l5.625-1.667v-1.666l-2.813-.834 2.813-.833v-1.667l-2.813-.833 2.813-.833z"/></g><path fill="#b56d6d" d="m-595.5 343-2.812.833 2.812.834 2.813-.834zM-595.5 346.333l-2.812.834 2.812.833 2.813-.833z"/><path fill="#fc7f7f" d="m-589 352.5v-10h-2l1.5-2 1.5-2 1.5 2 1.5 2h-2v10z"/></svg>
