<svg xmlns="http://www.w3.org/2000/svg" width="16" height="16"><g fill="#fc7f7f"><path d="m3.821 12.18c.16 1.153 1.227 1.961 2.382 1.799 1.155-.16 1.961-1.227 1.801-2.381-.043-.313-.158-.615-.333-.879l3.048-3.049c.97.646 2.281.382 2.927-.589s.383-2.282-.588-2.928c-.266-.175-.565-.289-.879-.333-.162-1.155-1.228-1.961-2.384-1.8-1.153.16-1.961 1.227-1.8 2.382.044.314.158.614.334.878l-3.048 3.049c-.971-.646-2.282-.382-2.928.589s-.382 2.281.589 2.928c.264.175.564.289.879.334z"/><path d="m1.061 10.7c-.164-.813 0-1.646.459-2.336.578-.87 1.548-1.389 2.593-1.389.327 0 .649.051.956.151l2.057-2.058c-.055-.172-.096-.349-.121-.528-.114-.823.099-1.642.6-2.305s1.231-1.091 2.053-1.206c.147-.02.289-.029.432-.029.979 0 1.868.464 2.443 1.194l.703-.703c-.769-.92-1.916-1.491-3.146-1.491-.19 0-.379.013-.569.039-1.088.151-2.052.717-2.714 1.593s-.944 1.958-.793 3.046c.004.025.008.051.012.077l-1.271 1.27c-.211-.033-.426-.05-.642-.05-1.381 0-2.662.686-3.426 1.835-.608.915-.824 2.01-.607 3.086.188.932.693 1.737 1.414 2.336l.708-.707c-.585-.457-.994-1.089-1.141-1.825zm8.912.544 1.271-1.271c.211.033.426.051.643.051 1.381 0 2.66-.687 3.426-1.835.607-.915.824-2.011.606-3.087-.188-.931-.692-1.737-1.412-2.334l-.708.708c.584.457.992 1.089 1.141 1.824.164.815 0 1.645-.461 2.336-.578.869-1.547 1.388-2.592 1.388-.328 0-.648-.051-.957-.149l-2.058 2.058c.058.174.097.352.122.529.113.823-.1 1.643-.6 2.305-.501.662-1.231 1.09-2.053 1.205-.146.019-.29.028-.432.028-.978 0-1.868-.464-2.442-1.191l-.704.701c.769.92 1.915 1.489 3.146 1.489.191 0 .383-.015.572-.04 1.085-.15 2.048-.717 2.71-1.592.662-.877.945-1.958.793-3.045-.004-.026-.007-.051-.011-.078z"/></g></svg>
