<svg xmlns="http://www.w3.org/2000/svg" fill-rule="evenodd" stroke-linejoin="round" stroke-miterlimit="2" clip-rule="evenodd" viewBox="0 0 340 340"><path fill="none" d="m9509.27-265.08h3815v1465h-3815z" transform="matrix(.08912 0 0 .23208 -847.48 61.52)"/><g fill="#363d4a"><path fill-opacity=".7" stroke="#363d4a" stroke-opacity=".7" stroke-width="10.79" d="M1302.44 2163.5c-1.638-2.361-2.613-3.767-2.613-3.767-1.494.316-3.034.513-4.623.513-13.453 0-24.372-10.919-24.372-24.372 0-13.469 10.919-24.371 24.372-24.371s24.371 10.902 24.371 24.371c0 4.674-1.341 9.009-3.632 12.717 0 0 2.124 3.063 5.371 7.743zM1313.5 2293.56c-3.324 2.484-5.534 4.136-5.534 4.136.502 1.886.81 3.845.81 5.899 0 13.454-10.918 24.372-24.371 24.372s-24.371-10.918-24.371-24.372c0-13.469 10.918-24.371 24.371-24.371 4.203 0 8.15 1.088 11.596 2.978 0 0 4.48-3.348 10.272-7.676z" transform="rotate(20.791 7922.245 -2654.563)scale(1.23389)"/><path d="m2866.39 1470.21c0-19.536-49.648-35.396-110.8-35.396h-886.4c-61.152 0-110.8 15.86-110.8 35.396v283.207c0 19.536 49.648 35.397 110.8 35.397h886.4c61.152 0 110.8-15.861 110.8-35.397z" transform="matrix(.22455 0 0 .7029 -313.568 -927.272)"/></g><path fill="#e0e0e0" d="m1455.6 2255.14c13.453 0 24.372 10.918 24.372 24.371s-10.919 24.372-24.372 24.372-24.371-10.919-24.371-24.372c0-.064.001-.127.003-.19 0 0-33.382-14.915-33.382-14.915-7.123 8.908-18.043 14.66-30.333 14.66-8.941 0-17.086-3.117-23.644-8.2 0 0-35.906 26.837-35.906 26.837.502 1.886.81 3.845.81 5.899 0 13.454-10.918 24.372-24.371 24.372s-24.371-10.918-24.371-24.372c0-13.469 10.918-24.371 24.371-24.371 4.203 0 8.15 1.088 11.596 2.978 0 0 35.835-26.78 35.835-26.78-2.054-4.708-3.273-9.843-3.273-15.315 0-9.701 3.589-18.529 9.448-25.331 0 0-38.179-55.05-38.179-55.05-1.494.316-3.034.513-4.623.513-13.453 0-24.372-10.919-24.372-24.372 0-13.469 10.919-24.371 24.372-24.371s24.371 10.902 24.371 24.371c0 4.674-1.341 9.009-3.632 12.717 0 0 38.126 54.971 38.126 54.971 4.187-1.546 8.715-2.401 13.442-2.401 4.558 0 8.942.801 13.012 2.251 0 0 28.625-42.333 28.626-42.333-2.383-3.752-3.793-8.171-3.793-12.942 0-13.453 10.919-24.371 24.372-24.371 13.469 0 24.371 10.918 24.371 24.371s-10.902 24.371-24.371 24.371c-1.493 0-2.945-.174-4.357-.454 0 0-28.649 42.356-28.649 42.355 6.048 6.852 9.741 15.847 9.741 25.705 0 2.205-.212 4.348-.579 6.448 0 0 33.374 14.926 33.374 14.926 4.32-3.931 10.041-6.348 16.336-6.348z" transform="rotate(20.791 7922.245 -2654.563)scale(1.23389)"/></svg>
