<svg xmlns="http://www.w3.org/2000/svg" xmlns:xlink="http://www.w3.org/1999/xlink" width="16" height="16"><defs><path id="a" fill="#e3a838" d="M 8,1 1,4 v 8 l 7,3 7,-3 V 4 Z"/><path id="b" fill="#ffca5f" d="m 8,1051.4 -7,-3 v -8 l 7,3 z"/><path id="c" fill="#ffe4ac" d="m 1,1040.4 7,3 7,-3 -7,-3 z"/></defs><g fill-rule="evenodd"><use xlink:href="#a" transform="translate(.58 8.513)scale(.42888)"/><use xlink:href="#b" transform="translate(.58 -435.982)scale(.42888)"/><use xlink:href="#c" transform="translate(.58 -435.982)scale(.42888)"/></g><g fill-rule="evenodd"><use xlink:href="#a" transform="translate(.588 .6)scale(.42888)"/><use xlink:href="#b" transform="translate(.588 -443.895)scale(.42888)"/><use xlink:href="#c" transform="translate(.588 -443.895)scale(.42888)"/></g><g fill-rule="evenodd"><use xlink:href="#a" transform="translate(8.569 .663)scale(.42888)"/><use xlink:href="#b" transform="translate(8.569 -443.833)scale(.42888)"/><use xlink:href="#c" transform="translate(8.569 -443.833)scale(.42888)"/></g><path fill="#ffca5f" d="m 9.0047794,7.969534 v 1 5 1 h 4.9999996 c 0.55228,0 1,-0.4477 1,-1 v -5 c 0,-0.5523 -0.44772,-1 -1,-1 v 4 l -1,-1 -1,1 v -4 z"/></svg>
