<svg xmlns="http://www.w3.org/2000/svg" width="16" height="16"><g fill-opacity=".996" fill-rule="evenodd" display="none"><path fill="#fb6d6d" d="M 8,1 1,4 v 8 l 7,3 7,-3 V 4 Z"/><path fill="#fc9c9c" d="m 8,1051.4 -7,-3 v -8 l 7,3 z" transform="translate(0 -1036.4)"/><path fill="#fdcbcb" d="m 1,1040.4 7,3 7,-3 -7,-3 z" transform="translate(0 -1036.4)"/></g><path fill="none" stroke="#fa9393" stroke-linejoin="round" stroke-width="1.195" d="M8.2978391 7.1893858 8.1683872 14.103012 14.090813 11.436328 14.058454 4.5556237ZM14.123177 4.6379287 8.2169315 14.168855"/><ellipse cx="2.438" cy="11.676" fill="#fa9393" rx="1.199" ry="1.184"/><ellipse cx="8.117" cy="13.833" fill="#fa9393" rx="1.199" ry="1.184"/><ellipse cx="13.967" cy="11.265" fill="#fa9393" rx="1.199" ry="1.184"/><ellipse cx="13.967" cy="4.783" fill="#fa9393" rx="1.199" ry="1.184"/><ellipse cx="8.288" cy="7.002" fill="#fa9393" rx="1.199" ry="1.184"/><ellipse cx="2.389" cy="4.733" fill="#fa9393" rx="1.199" ry="1.184"/><ellipse cx="8.263" cy="2.09" fill="#fa9393" rx="1.199" ry="1.184"/></svg>
